<svg width="87" height="87" viewBox="0 0 87 87" fill="none" xmlns="http://www.w3.org/2000/svg">
<path d="M29.0241 44.0479C36.1319 44.0479 41.494 38.6468 41.494 31.4871C41.494 24.3274 36.1319 18.9263 29.0241 18.9263C21.9164 18.9263 16.5543 24.3274 16.5543 31.4871C16.5543 38.6468 21.9164 44.0479 29.0241 44.0479ZM32.587 47.4501H25.4613C15.6387 47.4501 7.64734 55.4998 7.64734 65.3941V68.983H50.401V65.3941C50.401 55.4998 42.4096 47.4501 32.587 47.4501ZM72.8252 30.554L57.5052 45.9572L52.902 41.3204L47.8642 46.395L57.5052 56.0991L77.8559 35.6358L72.8252 30.554Z" fill="white"/>
</svg>
