<svg width="87" height="87" viewBox="0 0 87 87" fill="none" xmlns="http://www.w3.org/2000/svg">
<path d="M53.9638 40.2725H78.9034V47.4501H53.9638V40.2725ZM57.5266 54.6277H78.9034V61.8053H57.5266V54.6277ZM50.401 25.9173H78.9034V33.0949H50.401V25.9173ZM14.7729 68.983H50.401V65.3942C50.401 55.4998 42.4096 47.4501 32.587 47.4501H25.4613C15.6387 47.4501 7.64734 55.4998 7.64734 65.3942V68.983H14.7729ZM29.0242 43.8613C36.1319 43.8613 41.494 38.4602 41.494 31.3005C41.494 24.1408 36.1319 18.7397 29.0242 18.7397C21.9164 18.7397 16.5543 24.1408 16.5543 31.3005C16.5543 38.4602 21.9164 43.8613 29.0242 43.8613Z" fill="white"/>
</svg>
