<svg width="87" height="87" viewBox="0 0 87 87" fill="none" xmlns="http://www.w3.org/2000/svg">
<g clip-path="url(#clip0_308_1020)">
<path d="M36.1498 29.5061H57.5266V34.2912H36.1498V29.5061Z" fill="white"/>
<path d="M36.1498 39.0762H57.5266V43.8613H36.1498V39.0762Z" fill="white"/>
<path d="M36.1498 48.6464H57.5266V53.4315H36.1498V48.6464Z" fill="white"/>
<path d="M36.1498 58.2165H57.5266V63.0016H36.1498V58.2165Z" fill="white"/>
<path d="M26.6489 19.9359H31.3993V24.721H26.6489V19.9359Z" fill="white"/>
<path d="M26.6489 29.5061H31.3993V34.2912H26.6489V29.5061Z" fill="white"/>
<path d="M26.6489 39.0762H31.3993V43.8613H26.6489V39.0762Z" fill="white"/>
<path d="M26.6489 48.6464H31.3993V53.4315H26.6489V48.6464Z" fill="white"/>
<path d="M26.6489 58.2165H31.3993V63.0016H26.6489V58.2165Z" fill="white"/>
<path d="M36.1498 19.9359V24.721H56.719C55.7843 23.2395 55.072 21.6271 54.6051 19.9359H36.1498Z" fill="white"/>
<path d="M67.0274 32.425V77.3568H19.5234V10.3658H54.6288C55.0883 8.67595 55.7926 7.06358 56.719 5.5807H19.5234C18.2635 5.5807 17.0552 6.08484 16.1643 6.98222C15.2734 7.8796 14.7729 9.0967 14.7729 10.3658V77.3568C14.7729 78.6259 15.2734 79.843 16.1643 80.7404C17.0552 81.6378 18.2635 82.1419 19.5234 82.1419H67.0274C68.2873 82.1419 69.4955 81.6378 70.3864 80.7404C71.2773 79.843 71.7778 78.6259 71.7778 77.3568V33.0949C70.1716 33.0886 68.5736 32.8633 67.0274 32.425V32.425Z" fill="white"/>
<path d="M71.7777 27.1135C78.3367 27.1135 83.6537 21.7577 83.6537 15.1508C83.6537 8.54404 78.3367 3.18816 71.7777 3.18816C65.2188 3.18816 59.9017 8.54404 59.9017 15.1508C59.9017 21.7577 65.2188 27.1135 71.7777 27.1135Z" fill="white"/>
</g>
<defs>
<clipPath id="clip0_308_1020">
<rect width="85.5072" height="86.1314" fill="white" transform="translate(0.521729 0.795624)"/>
</clipPath>
</defs>
</svg>
