<svg width="87" height="87" viewBox="0 0 87 87" fill="none" xmlns="http://www.w3.org/2000/svg">
<g clip-path="url(#clip0_308_1000)">
<g clip-path="url(#clip1_308_1000)">
<path d="M16.5543 43.8613C21.4735 43.8613 25.4613 39.8444 25.4613 34.8893C25.4613 29.9342 21.4735 25.9173 16.5543 25.9173C11.6351 25.9173 7.64734 29.9342 7.64734 34.8893C7.64734 39.8444 11.6351 43.8613 16.5543 43.8613Z" fill="white"/>
<path d="M32.5869 29.5061C37.5061 29.5061 41.4939 25.4892 41.4939 20.5341C41.4939 15.579 37.5061 11.562 32.5869 11.562C27.6677 11.562 23.6799 15.579 23.6799 20.5341C23.6799 25.4892 27.6677 29.5061 32.5869 29.5061Z" fill="white"/>
<path d="M53.9638 29.5061C58.883 29.5061 62.8708 25.4892 62.8708 20.5341C62.8708 15.579 58.883 11.562 53.9638 11.562C49.0446 11.562 45.0568 15.579 45.0568 20.5341C45.0568 25.4892 49.0446 29.5061 53.9638 29.5061Z" fill="white"/>
<path d="M69.9964 43.8613C74.9156 43.8613 78.9034 39.8444 78.9034 34.8893C78.9034 29.9342 74.9156 25.9173 69.9964 25.9173C65.0772 25.9173 61.0894 29.9342 61.0894 34.8893C61.0894 39.8444 65.0772 43.8613 69.9964 43.8613Z" fill="white"/>
<path d="M62.3007 54.1253C59.201 50.4647 56.6002 47.3424 53.4649 43.6819C51.826 41.7439 49.724 39.8059 47.23 38.9446C46.8381 38.8011 46.4462 38.6934 46.0543 38.6216C45.1636 38.4781 44.2016 38.4781 43.2753 38.4781C42.349 38.4781 41.387 38.4781 40.4607 38.6575C40.0688 38.7293 39.6769 38.837 39.285 38.9805C36.791 39.8418 34.7246 41.7798 33.0501 43.7177C29.9504 47.3783 27.3496 50.5006 24.2143 54.1612C19.547 58.8625 13.8109 64.0663 14.8798 71.3516C15.913 75.0121 18.5138 78.6368 23.1811 79.6776C25.7819 80.2159 34.0833 78.0985 42.919 78.0985H43.5603C52.3961 78.0985 60.6974 80.18 63.2983 79.6776C67.9655 78.6368 70.5664 74.9763 71.5996 71.3516C72.704 64.0304 66.9679 58.8266 62.3007 54.1253V54.1253Z" fill="white"/>
</g>
</g>
<defs>
<clipPath id="clip0_308_1000">
<rect width="85.5072" height="86.1314" fill="white" transform="translate(0.521729 0.795624)"/>
</clipPath>
<clipPath id="clip1_308_1000">
<rect width="85.5072" height="86.1314" fill="white" transform="translate(0.521729 0.795624)"/>
</clipPath>
</defs>
</svg>
